<svg width="20" height="20" viewBox="0 0 20 20" fill="none" xmlns="http://www.w3.org/2000/svg">
<path fill-rule="evenodd" clip-rule="evenodd" d="M18.1819 19.9989C18.6641 19.9989 19.1265 19.8073 19.4675 19.4663C19.8085 19.1254 20 18.663 20 18.1808V1.81808C20 1.33589 19.8085 0.873458 19.4675 0.532502C19.1265 0.191547 18.6641 0 18.1819 0H1.81923C1.33704 0 0.874606 0.191547 0.533651 0.532502C0.192695 0.873458 0.00114824 1.33589 0.00114824 1.81808V8.18135C0.00114824 8.42244 0.0969219 8.65366 0.2674 8.82414C0.437878 8.99461 0.669095 9.09039 0.910187 9.09039C1.15128 9.09039 1.3825 8.99461 1.55297 8.82414C1.72345 8.65366 1.81923 8.42244 1.81923 8.18135V1.81808H18.1819V18.1808H11.8187C11.5776 18.1808 11.3463 18.2765 11.1759 18.447C11.0054 18.6175 10.9096 18.8487 10.9096 19.0898C10.9096 19.3309 11.0054 19.5621 11.1759 19.7326C11.3463 19.9031 11.5776 19.9989 11.8187 19.9989H18.1819ZM12.7277 8.18135V13.6356C12.7277 13.8767 12.6319 14.1079 12.4614 14.2784C12.291 14.4488 12.0597 14.5446 11.8187 14.5446C11.5776 14.5446 11.3463 14.4488 11.1759 14.2784C11.0054 14.1079 10.9096 13.8767 10.9096 13.6356V10.3758L1.55379 19.7334C1.46927 19.8179 1.36893 19.885 1.2585 19.9307C1.14807 19.9765 1.02971 20 0.910187 20C0.79066 20 0.672302 19.9765 0.561874 19.9307C0.451445 19.885 0.351106 19.8179 0.266587 19.7334C0.182069 19.6489 0.115025 19.5486 0.0692839 19.4381C0.0235428 19.3277 0 19.2093 0 19.0898C0 18.9703 0.0235428 18.8519 0.0692839 18.7415C0.115025 18.6311 0.182069 18.5307 0.266587 18.4462L9.62423 9.09039H6.36442C6.12333 9.09039 5.89211 8.99461 5.72163 8.82414C5.55115 8.65366 5.45538 8.42244 5.45538 8.18135C5.45538 7.94026 5.55115 7.70904 5.72163 7.53856C5.89211 7.36808 6.12333 7.27231 6.36442 7.27231H11.8187C11.9377 7.27183 12.0557 7.29484 12.1658 7.34001C12.276 7.38518 12.3761 7.45164 12.4606 7.53556C12.545 7.61949 12.6121 7.71925 12.6579 7.82913C12.7037 7.939 12.7275 8.05684 12.7277 8.17589" fill="white"/>
</svg>
