<svg width="177" height="177" viewBox="0 0 177 177" fill="none" xmlns="http://www.w3.org/2000/svg">
<path d="M88.5001 15.1667C47.9981 15.1667 15.1667 47.998 15.1667 88.5C15.1667 129.002 47.9981 161.833 88.5001 161.833C129.002 161.833 161.833 129.002 161.833 88.5C161.833 47.998 129.002 15.1667 88.5001 15.1667Z" stroke="black" stroke-width="12" stroke-linecap="round" stroke-linejoin="round"/>
<path d="M31.8208 135.037C31.8208 135.037 48.1668 114.167 88.5001 114.167C128.833 114.167 145.187 135.037 145.187 135.037M88.5001 88.5C94.3349 88.5 99.9307 86.1822 104.056 82.0564C108.182 77.9306 110.5 72.3348 110.5 66.5C110.5 60.6652 108.182 55.0695 104.056 50.9437C99.9307 46.8179 94.3349 44.5 88.5001 44.5C82.6654 44.5 77.0696 46.8179 72.9438 50.9437C68.818 55.0695 66.5001 60.6652 66.5001 66.5C66.5001 72.3348 68.818 77.9306 72.9438 82.0564C77.0696 86.1822 82.6654 88.5 88.5001 88.5Z" stroke="black" stroke-width="12" stroke-linecap="round" stroke-linejoin="round"/>
</svg>
