<svg width="32" height="32" viewBox="0 0 32 32" fill="none" xmlns="http://www.w3.org/2000/svg">
<path fill-rule="evenodd" clip-rule="evenodd" d="M21.7135 8.42569C22.6006 8.42569 25.806 8.50134 27.9027 11.3382C27.7213 11.4706 24.536 13.1538 24.536 16.9174C24.536 21.2673 28.5881 22.8181 28.7091 22.8559C28.689 22.9505 28.064 24.9553 26.5721 27.0168C25.2415 28.8134 23.8303 30.629 21.7135 30.629C19.5765 30.629 19.0322 29.4565 16.5928 29.4565C14.1937 29.4565 13.3471 30.6668 11.4117 30.6668C9.45613 30.6668 8.1054 28.9836 6.55306 26.941C4.73865 24.5202 3.28711 20.7755 3.28711 17.2201C3.28711 11.5274 7.23851 8.50134 11.1294 8.50134C13.1857 8.50134 14.8994 9.76849 16.2098 9.76849C17.4395 9.76849 19.3548 8.42569 21.7135 8.42569ZM20.6047 6.0238C19.5564 7.2153 17.7822 8.10418 16.371 8.10418C16.2098 8.10418 16.0485 8.08527 15.9477 8.06636C15.9275 7.99071 15.8872 7.76376 15.8872 7.53681C15.8872 6.0238 16.7138 4.5108 17.6009 3.56518C18.7298 2.31695 20.6249 1.39023 22.1974 1.3335C22.2376 1.50371 22.2579 1.71175 22.2579 1.91978C22.2579 3.43279 21.5724 4.92688 20.6047 6.0238Z" fill="#A7AFB7"/>
</svg>
