<svg width="33" height="32" viewBox="0 0 33 32" fill="none" xmlns="http://www.w3.org/2000/svg">
<path fill-rule="evenodd" clip-rule="evenodd" d="M22.2135 8.42569C23.1006 8.42569 26.306 8.50134 28.4027 11.3382C28.2213 11.4706 25.036 13.1538 25.036 16.9174C25.036 21.2673 29.0881 22.8181 29.2091 22.8559C29.189 22.9505 28.564 24.9553 27.0721 27.0168C25.7415 28.8134 24.3303 30.629 22.2135 30.629C20.0765 30.629 19.5322 29.4565 17.0928 29.4565C14.6937 29.4565 13.8471 30.6668 11.9117 30.6668C9.95613 30.6668 8.6054 28.9836 7.05306 26.941C5.23865 24.5202 3.78711 20.7755 3.78711 17.2201C3.78711 11.5274 7.73851 8.50134 11.6294 8.50134C13.6857 8.50134 15.3994 9.76849 16.7098 9.76849C17.9395 9.76849 19.8548 8.42569 22.2135 8.42569ZM21.1047 6.0238C20.0564 7.2153 18.2822 8.10418 16.871 8.10418C16.7098 8.10418 16.5485 8.08527 16.4477 8.06636C16.4275 7.99071 16.3872 7.76376 16.3872 7.53681C16.3872 6.0238 17.2138 4.5108 18.1009 3.56518C19.2298 2.31695 21.1249 1.39023 22.6974 1.3335C22.7376 1.50371 22.7579 1.71175 22.7579 1.91978C22.7579 3.43279 22.0724 4.92688 21.1047 6.0238Z" fill="#A7AFB7"/>
</svg>
