<svg width="32" height="32" viewBox="0 0 32 32" fill="none" xmlns="http://www.w3.org/2000/svg">
<path fill-rule="evenodd" clip-rule="evenodd" d="M21.7135 8.42557C22.6006 8.42557 25.806 8.50122 27.9027 11.3381C27.7213 11.4705 24.536 13.1537 24.536 16.9173C24.536 21.2672 28.5881 22.818 28.7091 22.8558C28.689 22.9504 28.064 24.9551 26.5721 27.0166C25.2415 28.8133 23.8303 30.6288 21.7135 30.6288C19.5765 30.6288 19.0322 29.4563 16.5928 29.4563C14.1937 29.4563 13.3471 30.6667 11.4117 30.6667C9.45613 30.6667 8.1054 28.9835 6.55306 26.9409C4.73865 24.5201 3.28711 20.7754 3.28711 17.2199C3.28711 11.5273 7.23851 8.50122 11.1294 8.50122C13.1857 8.50122 14.8994 9.76837 16.2098 9.76837C17.4395 9.76837 19.3548 8.42557 21.7135 8.42557ZM20.6047 6.02368C19.5564 7.21518 17.7822 8.10406 16.371 8.10406C16.2098 8.10406 16.0485 8.08515 15.9477 8.06624C15.9275 7.99058 15.8872 7.76364 15.8872 7.53669C15.8872 6.02368 16.7138 4.51068 17.6009 3.56505C18.7298 2.31683 20.6249 1.39011 22.1974 1.33337C22.2376 1.50359 22.2579 1.71162 22.2579 1.91966C22.2579 3.43267 21.5724 4.92675 20.6047 6.02368Z" fill="#A7AFB7"/>
</svg>
