<svg width="73" height="73" viewBox="0 0 73 73" fill="none" xmlns="http://www.w3.org/2000/svg">
<path d="M45.0669 32.6088C46.5525 32.61 47.8168 32.0891 48.8599 31.046C49.903 30.003 50.4239 28.7386 50.4226 27.253C50.4239 25.7674 49.903 24.5031 48.8599 23.46C47.8168 22.4169 46.5519 21.8954 45.065 21.8954C43.5807 21.8954 42.3169 22.4169 41.2739 23.46C40.2308 24.5031 39.7092 25.7668 39.7093 27.2511C39.7093 28.738 40.2308 30.003 41.2739 31.046C42.317 32.0891 43.5813 32.61 45.0669 32.6088Z" fill="black"/>
<path fill-rule="evenodd" clip-rule="evenodd" d="M36.9542 72.9235C56.8196 72.9235 72.9237 56.8195 72.9237 36.9541C72.9237 17.0887 56.8196 0.984619 36.9542 0.984619C17.0888 0.984619 0.984741 17.0887 0.984741 36.9541C0.984741 56.8195 17.0888 72.9235 36.9542 72.9235ZM61.1872 27.253C61.1872 31.6782 59.6068 35.4712 56.446 38.6321C53.8857 41.1924 50.9303 42.7102 47.5798 43.1856C44.2293 43.6585 41.0842 43.1837 38.1446 41.7613L29.8948 50.0111L33.6878 53.8042C34.7309 54.8472 35.2531 56.1116 35.2544 57.5972C35.2531 59.0828 34.7309 60.3471 33.6878 61.3902C32.6448 62.4333 31.3804 62.9555 29.8948 62.9567C28.4092 62.9555 27.1449 62.4333 26.1018 61.3902L22.3088 57.5972C21.3605 58.5454 20.1436 59.067 18.658 59.1618C17.1724 59.2566 15.8606 58.7351 14.7227 57.5972C13.6796 56.5541 13.1575 55.2898 13.1562 53.8042C13.1575 52.3186 13.6796 51.0542 14.7227 50.0111L30.5586 34.1753C29.1362 31.2357 28.6614 28.0906 29.1343 24.7401C29.6097 21.3896 31.1275 18.4342 33.6878 15.874C36.8487 12.7131 40.6417 11.1327 45.0669 11.1327C49.4921 11.1327 53.2851 12.7131 56.446 15.874C59.6068 19.0348 61.1872 22.8278 61.1872 27.253Z" fill="black"/>
</svg>
