<svg width="28" height="28" viewBox="0 0 28 28" fill="none" xmlns="http://www.w3.org/2000/svg">
<path d="M17.1576 12.3087C17.7358 12.3092 18.2279 12.1065 18.6339 11.7005C19.0399 11.2945 19.2427 10.8024 19.2422 10.2242C19.2427 9.64594 19.0399 9.15383 18.6339 8.74785C18.2279 8.34186 17.7356 8.13887 17.1569 8.13887C16.5791 8.13887 16.0873 8.34186 15.6813 8.74785C15.2753 9.15383 15.0723 9.64569 15.0723 10.2234C15.0723 10.8021 15.2753 11.2945 15.6813 11.7005C16.0873 12.1065 16.5794 12.3092 17.1576 12.3087Z" fill="white"/>
<path fill-rule="evenodd" clip-rule="evenodd" d="M14 28C21.732 28 28 21.732 28 14C28 6.26801 21.732 0 14 0C6.26801 0 0 6.26801 0 14C0 21.732 6.26801 28 14 28ZM23.432 10.2242C23.432 11.9465 22.8168 13.4228 21.5866 14.6531C20.59 15.6496 19.4398 16.2404 18.1357 16.4254C16.8316 16.6095 15.6075 16.4247 14.4633 15.8711L11.2523 19.0821L12.7287 20.5584C13.1347 20.9644 13.3379 21.4565 13.3384 22.0347C13.3379 22.6129 13.1347 23.105 12.7287 23.511C12.3227 23.917 11.8306 24.1202 11.2524 24.1207C10.6741 24.1202 10.182 23.917 9.77603 23.511L8.29972 22.0347C7.93064 22.4038 7.45699 22.6068 6.87876 22.6437C6.30054 22.6806 5.78998 22.4776 5.34709 22.0347C4.9411 21.6287 4.73786 21.1366 4.73737 20.5584C4.73786 19.9801 4.9411 19.488 5.34709 19.0821L11.5107 12.9184C10.9571 11.7743 10.7723 10.5502 10.9563 9.2461C11.1414 7.94202 11.7322 6.79173 12.7287 5.79521C13.9589 4.56495 15.4352 3.94982 17.1576 3.94982C18.88 3.94982 20.3563 4.56495 21.5866 5.79522C22.8168 7.02548 23.432 8.5018 23.432 10.2242Z" fill="white"/>
</svg>
