<svg width="37" height="31" viewBox="0 0 37 31" fill="none" xmlns="http://www.w3.org/2000/svg">
<path d="M36.9588 3.67272C35.6 4.29037 34.1353 4.69625 32.6176 4.89037C34.1706 3.95508 35.3706 2.47272 35.9353 0.690369C34.4706 1.57272 32.8471 2.19037 31.1353 2.54331C29.7412 1.02566 27.7824 0.143311 25.5588 0.143311C21.4118 0.143311 18.0235 3.53155 18.0235 7.7139C18.0235 8.3139 18.0941 8.89625 18.2177 9.44331C11.9353 9.12566 6.34118 6.10802 2.61765 1.53743C1.96471 2.64919 1.59412 3.95508 1.59412 5.33155C1.59412 7.96096 2.91765 10.2904 4.96471 11.6139C3.71177 11.6139 2.54707 11.261 1.52354 10.7315V10.7845C1.52354 14.4551 4.1353 17.5257 7.59412 18.2139C6.48364 18.5178 5.31782 18.5601 4.18824 18.3374C4.66755 19.8418 5.60625 21.1581 6.87239 22.1014C8.13853 23.0447 9.66844 23.5675 11.2471 23.5963C8.57112 25.7147 5.25412 26.8598 1.84118 26.8433C1.24118 26.8433 0.641183 26.808 0.0411835 26.7374C3.39412 28.8904 7.38236 30.1433 11.6529 30.1433C25.5588 30.1433 33.2 18.6021 33.2 8.59625C33.2 8.26096 33.2 7.94331 33.1824 7.60802C34.6647 6.54919 35.9353 5.20802 36.9588 3.67272Z" fill="black"/>
</svg>
