<svg width="20" height="20" viewBox="0 0 20 20" fill="none" xmlns="http://www.w3.org/2000/svg">
<path fill-rule="evenodd" clip-rule="evenodd" d="M10 19C14.9705 19 19 14.9705 19 10C19 5.0295 14.9705 1 10 1C5.0295 1 1 5.0295 1 10C1 14.9705 5.0295 19 10 19ZM10 20C15.523 20 20 15.523 20 10C20 4.477 15.523 0 10 0C4.477 0 0 4.477 0 10C0 15.523 4.477 20 10 20Z" fill="white"/>
<path d="M4.99998 14.8458C4.99998 14.4154 5.32165 14.0516 5.74998 14.0041C8.96457 13.6483 11.05 13.6804 14.2575 14.012C14.4177 14.0289 14.5695 14.092 14.6944 14.1936C14.8193 14.2953 14.9118 14.4312 14.9608 14.5846C15.0098 14.738 15.013 14.9024 14.9701 15.0576C14.9272 15.2129 14.84 15.3522 14.7191 15.4587C10.9337 18.7583 8.7704 18.7129 5.26665 15.462C5.09582 15.3037 4.99998 15.0783 4.99998 14.8458Z" fill="white"/>
<path fill-rule="evenodd" clip-rule="evenodd" d="M14.2146 14.4262C11.0325 14.0971 8.97709 14.0662 5.79542 14.4183C5.69069 14.4305 5.59414 14.4809 5.52425 14.5599C5.45437 14.6388 5.41606 14.7408 5.41667 14.8462C5.41667 14.9654 5.46625 15.0783 5.55 15.1567C7.28667 16.7675 8.6025 17.4954 9.88875 17.5C11.1796 17.5046 12.5663 16.7825 14.4454 15.145C14.5051 15.0919 14.5481 15.0225 14.5691 14.9454C14.5902 14.8683 14.5883 14.7868 14.5639 14.7107C14.5394 14.6346 14.4934 14.5672 14.4314 14.5168C14.3694 14.4664 14.2941 14.4347 14.2146 14.4262ZM5.70417 13.59C8.9525 13.2304 11.0683 13.2629 14.3008 13.5975C14.5418 13.6226 14.7702 13.7175 14.9581 13.8705C15.1459 14.0234 15.2851 14.2278 15.3586 14.4587C15.4321 14.6895 15.4367 14.9368 15.3718 15.1702C15.3069 15.4037 15.1754 15.6131 14.9933 15.7729C13.0871 17.4346 11.4996 18.3396 9.88625 18.3333C8.26833 18.3275 6.75084 17.4071 4.98375 15.7675C4.85723 15.6496 4.75637 15.507 4.68748 15.3484C4.61858 15.1898 4.58313 15.0187 4.58333 14.8458C4.58273 14.5352 4.69675 14.2352 4.90357 14.0034C5.11039 13.7716 5.39545 13.6247 5.70417 13.59Z" fill="white"/>
<path d="M13.3333 8.33334C13.3333 9.2174 12.9821 10.0652 12.357 10.6904C11.7319 11.3155 10.884 11.6667 9.99999 11.6667C9.11594 11.6667 8.26809 11.3155 7.64297 10.6904C7.01785 10.0652 6.66666 9.2174 6.66666 8.33334C6.66666 7.44929 7.01785 6.60144 7.64297 5.97632C8.26809 5.3512 9.11594 5.00001 9.99999 5.00001C10.884 5.00001 11.7319 5.3512 12.357 5.97632C12.9821 6.60144 13.3333 7.44929 13.3333 8.33334Z" fill="white"/>
<path fill-rule="evenodd" clip-rule="evenodd" d="M9.99999 10.8333C10.663 10.8333 11.2989 10.5699 11.7678 10.1011C12.2366 9.63227 12.5 8.99638 12.5 8.33334C12.5 7.6703 12.2366 7.03441 11.7678 6.56557C11.2989 6.09673 10.663 5.83334 9.99999 5.83334C9.33695 5.83334 8.70106 6.09673 8.23222 6.56557C7.76338 7.03441 7.49999 7.6703 7.49999 8.33334C7.49999 8.99638 7.76338 9.63227 8.23222 10.1011C8.70106 10.5699 9.33695 10.8333 9.99999 10.8333ZM9.99999 11.6667C10.884 11.6667 11.7319 11.3155 12.357 10.6904C12.9821 10.0652 13.3333 9.2174 13.3333 8.33334C13.3333 7.44929 12.9821 6.60144 12.357 5.97632C11.7319 5.3512 10.884 5.00001 9.99999 5.00001C9.11594 5.00001 8.26809 5.3512 7.64297 5.97632C7.01785 6.60144 6.66666 7.44929 6.66666 8.33334C6.66666 9.2174 7.01785 10.0652 7.64297 10.6904C8.26809 11.3155 9.11594 11.6667 9.99999 11.6667Z" fill="white"/>
</svg>
