<svg width="24" height="24" viewBox="0 0 24 24" fill="none" xmlns="http://www.w3.org/2000/svg">
<path d="M21.1226 15.87C20.5826 14.9669 19.9385 13.2436 19.9385 10.1657V9.5114C19.9385 5.22622 16.405 1.71515 12.0568 1.6875H12C10.9559 1.6875 9.92208 1.88786 8.9577 2.2771C7.99333 2.66635 7.11735 3.23683 6.37995 3.95589C5.64255 4.67494 5.0582 5.52845 4.66037 6.46751C4.26254 7.40658 4.05905 8.41277 4.06154 9.42846V10.1657C4.06154 13.2436 3.41737 14.9669 2.8774 15.87C2.71187 16.1508 2.62485 16.4688 2.625 16.7924C2.62515 17.1161 2.71246 17.434 2.87825 17.7146C3.04403 17.9952 3.28249 18.2287 3.56988 18.3917C3.85728 18.5548 4.18356 18.6417 4.51625 18.6439H7.85078C7.94952 19.6478 8.42932 20.58 9.19652 21.2583C9.96373 21.9366 10.9633 22.3125 12 22.3125C13.0367 22.3125 14.0363 21.9366 14.8035 21.2583C15.5707 20.58 16.0505 19.6478 16.1492 18.6439H19.4838C19.8164 18.6417 20.1427 18.5548 20.4301 18.3917C20.7175 18.2287 20.956 17.9952 21.1218 17.7146C21.2875 17.434 21.3749 17.1161 21.375 16.7924C21.3752 16.4688 21.2881 16.1508 21.1226 15.87ZM12 20.1183C11.5637 20.1167 11.1412 19.9694 10.8032 19.701C10.4652 19.4326 10.2323 19.0594 10.1433 18.6439H13.8567C13.7677 19.0594 13.5348 19.4326 13.1968 19.701C12.8588 19.9694 12.4363 20.1167 12 20.1183ZM5.14147 16.4322C6.1172 14.4416 6.33508 11.9627 6.33508 10.1657V9.42846C6.33133 8.70288 6.47516 7.98374 6.75829 7.31246C7.04142 6.64117 7.45825 6.031 7.98478 5.51708C8.51132 5.00315 9.13716 4.59562 9.82626 4.31796C10.5154 4.04029 11.2541 3.89798 12 3.8992H12.0474C15.1451 3.91763 17.6649 6.43344 17.6649 9.5114V10.1657C17.6649 11.9627 17.8828 14.4416 18.8585 16.4322H5.14147Z" fill="white"/>
</svg>
