<svg width="81" height="80" viewBox="0 0 81 80" fill="none" xmlns="http://www.w3.org/2000/svg">
<g clip-path="url(#clip0_198_1345)">
<path d="M40.8451 -1.01705e-05C42.1551 -1.01705e-05 43.4451 0.0849898 44.6451 0.28499C45.827 0.439853 46.993 0.697496 48.1301 1.05499C49.2701 1.39999 50.3851 1.82999 51.5001 2.36999C52.5851 2.88499 53.7001 3.51499 54.8151 4.19999C56.7001 5.39999 58.5551 6.36999 60.4451 7.14499C64.1658 8.63416 68.1003 9.52029 72.1001 9.76999C74.1301 9.91499 76.2151 9.99999 78.3851 9.99999V30C78.3851 33.8 77.9001 37.4 76.9301 40.83C75.9984 44.211 74.6744 47.4715 72.9851 50.545C71.303 53.6141 69.3127 56.504 67.0451 59.17C64.7427 61.8965 62.2498 64.4563 59.5851 66.83C56.8852 69.2107 54.0415 71.4232 51.0701 73.455C48.1001 75.515 45.1001 77.43 42.1001 79.17L40.9001 79.885L39.7001 79.17C36.6161 77.3845 33.6038 75.478 30.6701 73.455C27.6821 71.4461 24.8369 69.2325 22.1551 66.83C19.4921 64.4562 17.0008 61.8964 14.7001 59.17C12.4386 56.4927 10.4394 53.6045 8.73011 50.545C7.06977 47.4579 5.74713 44.2007 4.78511 40.83C3.80896 37.3037 3.32769 33.6588 3.35511 30V9.99999C5.53011 9.99999 7.61511 9.91499 9.64511 9.76999C11.6434 9.63119 13.6288 9.34542 15.5851 8.91499C17.5001 8.48499 19.4151 7.91499 21.3001 7.14499C23.2561 6.35556 25.1315 5.37938 26.9001 4.22999C29.1001 2.79999 31.3301 1.74499 33.5301 1.04999C35.8994 0.323648 38.3671 -0.0305677 40.8451 -1.01705e-05ZM73.3551 14.915C69.5703 14.7313 65.8206 14.0986 62.1851 13.03C58.5688 11.9513 55.1243 10.3637 51.9551 8.31499C50.3113 7.23597 48.526 6.38961 46.6501 5.79999C44.7763 5.23366 42.8276 4.95384 40.8701 4.96999C38.8981 4.95724 36.9351 5.23694 35.0451 5.79999C33.1665 6.37045 31.3835 7.21812 29.7551 8.31499C26.5804 10.3749 23.127 11.9694 19.5001 13.05C15.9551 14.08 12.2451 14.71 8.35511 14.94V30.025C8.35511 33.34 8.78511 36.51 9.64511 39.565C10.5212 42.5934 11.7285 45.5161 13.2451 48.28C14.7799 51.0727 16.5888 53.7057 18.6451 56.14C20.7301 58.595 22.9551 60.88 25.3551 63.05C27.7551 65.225 30.2701 67.225 32.9001 69.08C35.5551 70.94 38.2151 72.625 40.8701 74.165C43.5887 72.5823 46.2394 70.8858 48.8151 69.08C51.4625 67.2308 53.9908 65.2168 56.3851 63.05C58.7851 60.88 61.0151 58.595 63.1001 56.14C65.1567 53.7058 66.9656 51.0728 68.5001 48.28C70.01 45.5195 71.1994 42.5956 72.0451 39.565C72.9313 36.4631 73.3723 33.251 73.3551 30.025V14.915Z" fill="black"/>
<path fill-rule="evenodd" clip-rule="evenodd" d="M59.4851 23.5453L57.2851 21.6553L55.2551 21.8303L33.4551 47.5703L26.0301 36.9703L24.0301 36.6303L21.7151 38.2853L21.3701 40.2853L30.9151 53.9153L32.0001 54.5153L34.2851 54.6553L35.4551 54.1453L59.6301 25.5703L59.4851 23.5453Z" fill="#03B31F"/>
</g>
<defs>
<clipPath id="clip0_198_1345">
<rect width="80" height="80" fill="white" transform="translate(0.5)"/>
</clipPath>
</defs>
</svg>
